<?xml version="1.0" encoding="utf-8"?>
<!-- Generator: Adobe Illustrator 19.0.0, SVG Export Plug-In . SVG Version: 6.00 Build 0)  -->
<svg version="1.1" id="Layer_1" xmlns="http://www.w3.org/2000/svg" xmlns:xlink="http://www.w3.org/1999/xlink" x="0px" y="0px"
	 width="40px" height="25px" viewBox="0 0 100 100" style="enable-background:new 0 0 100 100;" xml:space="preserve">
<path d="M89.5,46H15.9l7.7-7.6c1-1,1-2.6,0-3.6l0,0c-1-1-2.6-1-3.6,0L7.8,47.1c-0.8,0.8-0.8,2,0,2.8L20,62.2c1,1,2.6,1,3.6,0l0,0
	c1-1,1-2.6,0-3.6L15.9,51h73.6c1.4,0,2.5-1.1,2.5-2.5v0C92,47.1,90.9,46,89.5,46z"/>
</svg>
