<svg display="none" xmlns="http://www.w3.org/2000/svg">
    <symbol id="checked_icon" viewBox="0 0 24 24">
        <g>
            <polyline points="4 13 9 18 20 7"/>
        </g>
    </symbol>
    <symbol id="circle" viewBox="0 0 24 24">
        <g>
            <path d="M12 2C6.486 2 2 6.486 2 12s4.486 10 10 10 10-4.486 10-10S17.514 2 12 2z"/>
        </g>
    </symbol>
    <symbol id="chat" viewBox="0 0 297 297">
        <g>
            <path d="M206.093,181.516c17.379,0,31.515-14.138,31.515-31.515V54.593c0-17.378-14.136-31.518-31.515-31.518H31.51
		C14.135,23.075,0,37.215,0,54.593v95.408c0,17.377,14.135,31.515,31.51,31.515h22.933v32.988c0,4.012,2.416,7.627,6.121,9.162
		c1.228,0.507,2.516,0.753,3.792,0.753c2.58,0,5.117-1.007,7.014-2.904l39.991-39.999H206.093z"/>
            <path d="M269.415,105.583h-15.944v44.418c0,26.125-21.253,47.378-47.378,47.378h-88.161l-18.537,18.542
		c2.234,12.987,13.567,22.902,27.181,22.902h76.762l32.191,32.196c1.896,1.897,4.434,2.905,7.014,2.905
		c1.276,0,2.564-0.249,3.792-0.756c3.705-1.535,6.12-5.149,6.12-9.16v-25.186h16.961c15.211,0,27.585-12.378,27.585-27.591v-78.061
		C297,117.959,284.626,105.583,269.415,105.583z"/>
        </g>
    </symbol>
    <symbol id="amazon" viewBox="163.5 163.50000000000003 285 285">
        <g>
            <path d="m340.3 330.2c-16.5 12.2-40.5 18.7-61.2 18.7-29 0-55-10.7-74.8-28.5-1.5-1.4-.2-3.3 1.7-2.2 21.3 12.4 47.6 19.8 74.8 19.8 18.3 0 38.5-3.8 57.1-11.7 2.8-1.1 5.1 1.9 2.4 3.9z"
                  fill="#f90"/>
            <path d="m347.2 322.3c-2.1-2.7-14-1.3-19.3-.6-1.6.2-1.9-1.2-.4-2.2 9.5-6.7 25-4.7 26.8-2.5s-.5 17.8-9.4 25.2c-1.4 1.1-2.7.5-2.1-1 2-5 6.5-16.1 4.4-18.9z"
                  fill="#f90"/>
            <path d="m328.2 272.5v-6.5c0-1 .7-1.6 1.6-1.6h29c.9 0 1.7.7 1.7 1.6v5.5c0 .9-.8 2.1-2.2 4.1l-15 21.4c5.6-.1 11.5.7 16.5 3.5 1.1.6 1.4 1.6 1.5 2.5v6.9c0 1-1 2.1-2.1 1.5-8.9-4.7-20.8-5.2-30.6.1-1 .5-2.1-.5-2.1-1.5v-6.6c0-1 0-2.8 1.1-4.4l17.4-24.9h-15.1c-.9 0-1.7-.7-1.7-1.6zm-105.7 40.3h-8.8c-.8-.1-1.5-.7-1.6-1.5v-45.2c0-.9.8-1.6 1.7-1.6h8.2c.9 0 1.5.7 1.6 1.5v5.9h.2c2.1-5.7 6.2-8.4 11.6-8.4 5.5 0 9 2.7 11.4 8.4 2.1-5.7 7-8.4 12.2-8.4 3.7 0 7.7 1.5 10.2 5 2.8 3.8 2.2 9.3 2.2 14.2v28.6c0 .9-.8 1.6-1.7 1.6h-8.7c-.9-.1-1.6-.8-1.6-1.6v-24c0-1.9.2-6.7-.2-8.5-.7-3-2.6-3.9-5.2-3.9-2.1 0-4.4 1.4-5.3 3.7s-.8 6.1-.8 8.7v24c0 .9-.8 1.6-1.7 1.6h-8.8c-.9-.1-1.6-.8-1.6-1.6v-24c0-5 .8-12.5-5.4-12.5-6.3 0-6.1 7.2-6.1 12.5v24c-.1.8-.8 1.5-1.8 1.5zm163-49.3c13.1 0 20.2 11.2 20.2 25.5 0 13.8-7.8 24.8-20.2 24.8-12.8 0-19.8-11.2-19.8-25.2-.1-14.1 7-25.1 19.8-25.1zm0 9.3c-6.5 0-6.9 8.9-6.9 14.4s-.1 17.3 6.8 17.3c6.8 0 7.2-9.5 7.2-15.3 0-3.8-.2-8.4-1.3-12-1-3.2-3-4.4-5.8-4.4zm37.1 40h-8.8c-.9-.1-1.6-.8-1.6-1.6v-45.3c.1-.8.8-1.5 1.7-1.5h8.2c.8 0 1.4.6 1.6 1.3v6.9h.2c2.5-6.2 5.9-9.1 12-9.1 3.9 0 7.8 1.4 10.3 5.3 2.3 3.6 2.3 9.7 2.3 14.1v28.5c-.1.8-.8 1.4-1.7 1.4h-8.8c-.8-.1-1.5-.7-1.6-1.4v-24.6c0-5 .6-12.2-5.5-12.2-2.1 0-4.1 1.4-5.1 3.6-1.2 2.8-1.4 5.5-1.4 8.6v24.4c-.1.9-.9 1.6-1.8 1.6zm-117.5-21.6c0 3.4.1 6.3-1.6 9.4-1.4 2.5-3.6 4-6.1 4-3.4 0-5.4-2.6-5.4-6.4 0-7.5 6.7-8.9 13.1-8.9zm8.9 21.5c-.6.5-1.4.6-2.1.2-2.9-2.4-3.5-3.6-5.1-5.9-4.8 4.9-8.3 6.4-14.5 6.4-7.4 0-13.2-4.6-13.2-13.7 0-7.2 3.9-12 9.4-14.4 4.8-2.1 11.5-2.5 16.6-3.1v-1.1c0-2.1.2-4.6-1.1-6.4-1.1-1.6-3.1-2.3-4.9-2.3-3.4 0-6.4 1.7-7.1 5.3-.2.8-.7 1.6-1.5 1.6l-8.5-.9c-.7-.2-1.5-.7-1.3-1.8 2-10.4 11.3-13.5 19.7-13.5 4.3 0 9.9 1.1 13.3 4.4 4.3 4 3.9 9.4 3.9 15.2v13.7c0 4.1 1.7 5.9 3.3 8.2.6.8.7 1.8 0 2.3-1.9 1.5-5.1 4.3-6.9 5.8zm-124.4-21.5c0 3.4.1 6.3-1.6 9.4-1.4 2.5-3.6 4-6.1 4-3.4 0-5.4-2.6-5.4-6.4 0-7.5 6.7-8.9 13.1-8.9zm8.8 21.5c-.6.5-1.4.6-2.1.2-2.9-2.4-3.5-3.6-5.1-5.9-4.8 4.9-8.3 6.4-14.5 6.4-7.4 0-13.2-4.6-13.2-13.7 0-7.2 3.9-12 9.4-14.4 4.8-2.1 11.5-2.5 16.6-3.1v-1.1c0-2.1.2-4.6-1.1-6.4-1.1-1.6-3.1-2.3-4.9-2.3-3.4 0-6.4 1.7-7.1 5.3-.2.8-.7 1.6-1.5 1.6l-8.5-.9c-.7-.2-1.5-.7-1.3-1.8 2-10.4 11.3-13.5 19.7-13.5 4.3 0 9.9 1.1 13.3 4.4 4.3 4 3.9 9.4 3.9 15.2v13.7c0 4.1 1.7 5.9 3.3 8.2.6.8.7 1.8 0 2.3-1.9 1.5-5.1 4.3-6.9 5.8z"/>
        </g>
    </symbol>
    <symbol id="left_arrow" viewBox="0 0 512.001 512.001">
        <g>
            <path d="M488.728,232.727l-384,0.002v-34.911c0-9.413-5.671-17.9-14.367-21.501
	c-8.699-3.603-18.708-1.61-25.363,5.046L6.817,239.544c-9.089,9.089-9.089,23.824,0,32.912l58.182,58.182
	c4.453,4.453,10.404,6.817,16.462,6.817c2.998,0,6.021-0.58,8.901-1.772c8.696-3.603,14.367-12.088,14.367-21.501v-34.908l384-0.003
	c12.853,0,23.273-10.42,23.273-23.273C512.001,243.147,501.581,232.727,488.728,232.727z"/>
        </g>
    </symbol>
    <symbol id="compass" viewBox="0 0 95.098 95.098">
        <g>
            <path d="M47.549,0C21.288,0,0,21.288,0,47.549s21.288,47.549,47.549,47.549c26.262,0,47.549-21.288,47.549-47.549
			S73.811,0,47.549,0z M47.549,85.098C26.844,85.098,10,68.253,10,47.549S26.844,10,47.549,10s37.549,16.845,37.549,37.549
			S68.254,85.098,47.549,85.098z"/>
            <path d="M77.665,29.911c-0.25-0.428-0.755-0.633-1.231-0.503l-33.783,9.213c-0.186,0.052-0.355,0.151-0.492,0.288L17.596,63.865
			c-0.346,0.354-0.414,0.895-0.164,1.32c0.25,0.428,0.755,0.635,1.232,0.504l33.783-9.214c0.093-0.024,0.182-0.062,0.265-0.11
			c0.083-0.049,0.159-0.108,0.228-0.178l24.562-24.957C77.848,30.879,77.915,30.337,77.665,29.911z M26.705,59.756l16.46-16.725
			l6.179,10.551L26.705,59.756z"/>
        </g>
    </symbol>
    <symbol id="document" viewBox="0 0 488.9 488.9">
        <g>
            <path d="M438.9,126.9L332.8,7.3c-4.2-5.2-9.4-7.3-15.6-7.3H65.5C54.1,0,44.7,9.4,44.7,20.8v447.3c0,11.4,9.4,20.8,20.8,20.8
				h357.9c11.4,0,19.8-9.4,20.8-19.8V140.5C444.1,135.3,442.1,131.1,438.9,126.9z M337,73.6l40.7,46.1H337V73.6z M402.5,448.4
				l-316.2,0V40.6h210.1v98.8c0,11.4,9.4,20.8,20.8,20.8h85.3V448.4z"/>
            <path d="M136.2,235.1c0,11.4,9.4,20.8,20.8,20.8h174.8c11.4,0,20.8-9.4,20.8-20.8c0-11.4-9.4-20.8-20.8-20.8H157
				C145.6,214.3,136.2,223.7,136.2,235.1z"/>
            <path d="M331.8,343.3H157c-11.4,0-20.8,9.4-20.8,20.8c0,11.4,9.4,20.8,20.8,20.8h174.8c11.4,0,20.8-9.4,20.8-20.8
				C352.6,352.7,343.2,343.3,331.8,343.3z"/>
        </g>
    </symbol>
    <symbol id="facebook" viewBox="0 0 112.196 112.196">
        <g>
            <circle cx="56.098" cy="56.098" r="56.098"/>
            <path style="fill:#414457;" d="M70.201,58.294h-10.01v36.672H45.025V58.294h-7.213V45.406h7.213v-8.34
		c0-5.964,2.833-15.303,15.301-15.303L71.56,21.81v12.51h-8.151c-1.337,0-3.217,0.668-3.217,3.513v7.585h11.334L70.201,58.294z"/>
        </g>
    </symbol>
    <symbol id="help" viewBox="0 0 100 100">
        <g>
            <path d="M48.864,16.562c-9.036,0-17.532,3.52-23.921,9.909c-6.39,6.39-9.908,14.884-9.908,23.92s3.519,17.53,9.908,23.92
		c6.389,6.39,14.884,9.908,23.92,9.908c9.035,0,17.531-3.519,23.92-9.908c13.189-13.19,13.189-34.651,0-47.842
		C66.395,20.08,57.899,16.562,48.864,16.562z M63.119,24.178l-7.496,7.498c-2.079-0.748-4.286-1.16-6.561-1.16
		c-2.239,0-4.411,0.399-6.461,1.125l-7.648-7.649c4.237-2.239,8.982-3.43,13.912-3.43C53.928,20.562,58.795,21.819,63.119,24.178z
		 M38.211,60.709c-5.982-5.982-5.982-15.717,0-21.699c2.899-2.898,6.753-4.494,10.851-4.494s7.952,1.596,10.85,4.494
		c5.982,5.982,5.982,15.718,0,21.701c-2.898,2.897-6.751,4.494-10.849,4.494C44.964,65.205,41.11,63.608,38.211,60.709z
		 M23.313,34.98l7.768,7.768c-1.723,4.375-1.779,9.248-0.195,13.663l-8.234,8.235c-2.359-4.324-3.617-9.192-3.617-14.256
		C19.035,44.871,20.526,39.583,23.313,34.98z M33.787,76.137l8.258-8.256c2.209,0.859,4.576,1.324,7.018,1.324
		c2.478,0,4.88-0.475,7.117-1.359l8.094,8.095c-4.602,2.787-9.891,4.278-15.41,4.278C43.477,80.219,38.312,78.796,33.787,76.137z
		 M75.255,64.294l-7.982-7.982c1.535-4.356,1.478-9.147-0.195-13.464l7.528-7.528C79.807,44.207,80.023,55.229,75.255,64.294z"/>
        </g>
    </symbol>
    <symbol id="horn" viewBox="0 0 512 512">
        <g>
            <polygon points="196.182,168.583 196.182,156.537 40.558,156.537 40.558,183.575 0,183.575 0,295.781 40.558,295.781
			40.558,322.817 74.438,322.817 74.438,322.819 168.926,322.819 168.926,322.817 196.182,322.817 196.182,310.771 196.184,310.772
			196.184,168.582 		"/>
            <polygon points="175.549,353.237 81.062,353.237 104.857,462.522 199.345,462.522 		"/>
            <path d="M262.026,147.465c-12.979,4.952-24.89,9.033-35.425,12.373v159.679c10.534,3.339,22.446,7.421,35.425,12.372
			c44.271,16.89,110.027,47.504,174.45,97.988V49.478C372.053,99.963,306.297,130.576,262.026,147.465z"/>
            <path d="M474.955,168.704h-8.063v141.947h8.063c20.426,0,37.045-16.618,37.045-37.045v-67.858
			C512,185.322,495.381,168.704,474.955,168.704z"/>
        </g>
    </symbol>
    <symbol id="info" viewBox="0 0 1024 1024">
        <g>
            <path
                    d="M512 64a448 448 0 110 896.064A448 448 0 01512 64zm67.2 275.072c33.28 0 60.288-23.104 60.288-57.344s-27.072-57.344-60.288-57.344c-33.28 0-60.16 23.104-60.16 57.344s26.88 57.344 60.16 57.344zM590.912 699.2c0-6.848 2.368-24.64 1.024-34.752l-52.608 60.544c-10.88 11.456-24.512 19.392-30.912 17.28a12.992 12.992 0 01-8.256-14.72l87.68-276.992c7.168-35.136-12.544-67.2-54.336-71.296-44.096 0-108.992 44.736-148.48 101.504 0 6.784-1.28 23.68.064 33.792l52.544-60.608c10.88-11.328 23.552-19.328 29.952-17.152a12.8 12.8 0 017.808 16.128L388.48 728.576c-10.048 32.256 8.96 63.872 55.04 71.04 67.84 0 107.904-43.648 147.456-100.416z"/>
        </g>
    </symbol>
    <symbol id="like" viewBox="0 0 460.958 460.958">
        <g>
            <path d="M337.843,23.957c-45.74,0-86.155,25.047-107.364,62.788c-21.209-37.741-61.623-62.788-107.364-62.788
			C55.229,23.957,0,79.186,0,147.072c0,54.355,37.736,119.46,112.16,193.506c54.115,53.84,107.363,92.031,109.603,93.631
			c2.607,1.861,5.662,2.792,8.716,2.792s6.109-0.93,8.715-2.792c2.241-1.6,55.489-39.791,109.604-93.631
			c74.424-74.046,112.16-139.151,112.16-193.506C460.958,79.186,405.729,23.957,337.843,23.957z M327.919,319.032
			c-39.843,39.681-80.171,71.279-97.44,84.307c-17.269-13.029-57.597-44.626-97.44-84.307C65.63,251.899,30,192.436,30,147.072
			c0-51.344,41.771-93.115,93.115-93.115c47.279,0,87.03,35.369,92.464,82.271c0.876,7.565,7.284,13.273,14.9,13.273
			c7.616,0,14.023-5.708,14.9-13.273c5.435-46.902,45.185-82.271,92.464-82.271c51.344,0,93.115,41.771,93.115,93.115
			C430.958,192.436,395.328,251.899,327.919,319.032z"/>
        </g>
    </symbol>
    <symbol id="linkedin" viewBox="0 0 291.319 291.319">
        <g>
            <path d="M145.659,0c80.45,0,145.66,65.219,145.66,145.66s-65.21,145.659-145.66,145.659S0,226.1,0,145.66
		S65.21,0,145.659,0z"/>
            <path style="fill:#414457;" d="M82.079,200.136h27.275v-90.91H82.079V200.136z M188.338,106.077
		c-13.237,0-25.081,4.834-33.483,15.504v-12.654H127.48v91.21h27.375v-49.324c0-10.424,9.55-20.593,21.512-20.593
		s14.912,10.169,14.912,20.338v49.57h27.275v-51.6C218.553,112.686,201.584,106.077,188.338,106.077z M95.589,100.141
		c7.538,0,13.656-6.118,13.656-13.656S103.127,72.83,95.589,72.83s-13.656,6.118-13.656,13.656S88.051,100.141,95.589,100.141z"/>
        </g>
    </symbol>
    <symbol id="order" viewBox="0 0 100 100">
        <g>
            <path d="M39,32H61a2,2,0,0,0,2-2V26a6,6,0,0,0-6-6H43a6,6,0,0,0-6,6v4A2,2,0,0,0,39,32Zm33-7H70a.94.94,0,0,0-1,1v4a8,8,0,0,1-8,8H39a8,8,0,0,1-8-8V26a.94.94,0,0,0-1-1H28a6,6,0,0,0-6,6V74a6,6,0,0,0,6,6H72a6,6,0,0,0,6-6V31A6,6,0,0,0,72,25ZM39,68a2,2,0,0,1-2,2H35a2,2,0,0,1-2-2V66a2,2,0,0,1,2-2h2a2,2,0,0,1,2,2Zm0-10a2,2,0,0,1-2,2H35a2,2,0,0,1-2-2V56a2,2,0,0,1,2-2h2a2,2,0,0,1,2,2Zm0-10a2,2,0,0,1-2,2H35a2,2,0,0,1-2-2V46a2,2,0,0,1,2-2h2a2,2,0,0,1,2,2ZM67,68a2,2,0,0,1-2,2H45a2,2,0,0,1-2-2V66a2,2,0,0,1,2-2H65a2,2,0,0,1,2,2Zm0-10a2,2,0,0,1-2,2H45a2,2,0,0,1-2-2V56a2,2,0,0,1,2-2H65a2,2,0,0,1,2,2Zm0-10a2,2,0,0,1-2,2H45a2,2,0,0,1-2-2V46a2,2,0,0,1,2-2H65a2,2,0,0,1,2,2Z"/>
        </g>
    </symbol>
    <symbol id="plus" viewBox="0 0 60.364 60.364">
        <g>
            <path d="M54.454,23.18l-18.609-0.002L35.844,5.91C35.845,2.646,33.198,0,29.934,0c-3.263,0-5.909,2.646-5.909,5.91v17.269
		L5.91,23.178C2.646,23.179,0,25.825,0,29.088c0.002,3.264,2.646,5.909,5.91,5.909h18.115v19.457c0,3.267,2.646,5.91,5.91,5.91
		c3.264,0,5.909-2.646,5.91-5.908V34.997h18.611c3.262,0,5.908-2.645,5.908-5.907C60.367,25.824,57.718,23.178,54.454,23.18z"/>
        </g>
    </symbol>
    <symbol id="share" viewBox="0 0 227.216 227.216">
        <g>
            <path d="M175.897,141.476c-13.249,0-25.11,6.044-32.98,15.518l-51.194-29.066c1.592-4.48,2.467-9.297,2.467-14.317
	c0-5.019-0.875-9.836-2.467-14.316l51.19-29.073c7.869,9.477,19.732,15.523,32.982,15.523c23.634,0,42.862-19.235,42.862-42.879
	C218.759,19.229,199.531,0,175.897,0C152.26,0,133.03,19.229,133.03,42.865c0,5.02,0.874,9.838,2.467,14.319L84.304,86.258
	c-7.869-9.472-19.729-15.514-32.975-15.514c-23.64,0-42.873,19.229-42.873,42.866c0,23.636,19.233,42.865,42.873,42.865
	c13.246,0,25.105-6.042,32.974-15.513l51.194,29.067c-1.593,4.481-2.468,9.3-2.468,14.321c0,23.636,19.23,42.865,42.867,42.865
	c23.634,0,42.862-19.23,42.862-42.865C218.759,160.71,199.531,141.476,175.897,141.476z M175.897,15
	c15.363,0,27.862,12.5,27.862,27.865c0,15.373-12.499,27.879-27.862,27.879c-15.366,0-27.867-12.506-27.867-27.879
	C148.03,27.5,160.531,15,175.897,15z M51.33,141.476c-15.369,0-27.873-12.501-27.873-27.865c0-15.366,12.504-27.866,27.873-27.866
	c15.363,0,27.861,12.5,27.861,27.866C79.191,128.975,66.692,141.476,51.33,141.476z M175.897,212.216
	c-15.366,0-27.867-12.501-27.867-27.865c0-15.37,12.501-27.875,27.867-27.875c15.363,0,27.862,12.505,27.862,27.875
	C203.759,199.715,191.26,212.216,175.897,212.216z"/>
        </g>
    </symbol>
    <symbol id="suitcase" viewBox="0 0 107.516 107.516">
        <g>
            <path d="M18.46,25.75v72.354H9.598c-1.045,0-2.137-0.24-3.271-0.741c-1.142-0.49-2.172-1.145-3.092-1.983
		c-0.923-0.827-1.696-1.768-2.308-2.813C0.308,91.518,0,90.445,0,89.339V34.332c0-0.923,0.308-1.893,0.927-2.906
		c0.612-1.013,1.385-1.936,2.308-2.766c0.92-0.827,1.922-1.525,2.999-2.072c1.081-0.551,2.072-0.83,3.003-0.83L18.46,25.75
		L18.46,25.75z M24.093,25.839h14.484V14.487c0-0.49,0.172-1.027,0.512-1.614c0.336-0.58,0.773-1.134,1.288-1.657
		c0.523-0.523,1.095-0.959,1.714-1.292c0.612-0.336,1.167-0.512,1.661-0.512h20.024c0.555,0,1.156,0.175,1.804,0.512
		c0.651,0.344,1.217,0.769,1.707,1.292c0.497,0.523,0.913,1.106,1.253,1.746c0.336,0.651,0.505,1.245,0.505,1.804v11.073h14.398
		V98.1H24.104V25.839H24.093z M44.116,14.952V25.75h19.473V14.952H44.116z M89.156,25.75h9.416c0.916,0,1.9,0.279,2.949,0.83
		s2.011,1.26,2.906,2.122c0.891,0.859,1.628,1.8,2.208,2.813c0.587,1.02,0.88,1.958,0.88,2.817v55.003
		c0,1.109-0.293,2.176-0.88,3.225c-0.58,1.045-1.335,1.983-2.258,2.813c-0.927,0.83-1.936,1.492-3.049,1.986
		c-1.113,0.497-2.18,0.741-3.228,0.741h-8.947V25.75H89.156z"/>
        </g>
    </symbol>
    <symbol id="trash" viewBox="0 0 307.252 307.252">
        <g>
            <path id="XMLID_564_" d="M184.581,230.833l9.521-100.238c0.575-6.048,5.931-10.48,11.991-9.911
	c6.048,0.575,10.485,5.943,9.911,11.991l-9.521,100.238c-0.541,5.694-5.332,9.961-10.938,9.961c-0.348,0-0.699-0.017-1.053-0.05
	C188.444,242.249,184.007,236.881,184.581,230.833z M45.306,37.023h216.644c6.075,0,11-4.925,11-11s-4.925-11-11-11h-61.998
	c0.49-1.246,0.759-2.604,0.759-4.023c0-6.075-4.925-11-11-11h-72.165c-6.075,0-11,4.925-11,11c0,1.42,0.269,2.777,0.759,4.023
	H45.306c-6.075,0-11,4.925-11,11S39.23,37.023,45.306,37.023z M153.624,260.644c6.075,0,11-4.925,11-11V113.864
	c0-6.075-4.925-11-11-11s-11,4.925-11,11v135.779C142.624,255.719,147.549,260.644,153.624,260.644z M273.279,68.477l-25.58,228.996
	c-0.622,5.568-5.329,9.779-10.932,9.779H70.484c-5.603,0-10.31-4.211-10.932-9.779L33.973,68.477
	c-0.348-3.11,0.646-6.222,2.733-8.555c2.086-2.333,5.068-3.666,8.198-3.666h217.443c3.13,0,6.112,1.333,8.198,3.666
	C272.633,62.255,273.627,65.366,273.279,68.477z M250.051,78.256H57.201l23.123,206.996h146.604L250.051,78.256z M100.772,232.913
	c0.54,5.694,5.33,9.961,10.938,9.961c0.348,0,0.699-0.017,1.053-0.05c6.048-0.575,10.485-5.943,9.911-11.991l-9.52-100.238
	c-0.575-6.048-5.938-10.484-11.991-9.911c-6.048,0.575-10.485,5.943-9.911,11.991L100.772,232.913z"/>
        </g>
    </symbol>
    <symbol id="twitter" viewBox="0 0 112.197 112.197">
        <g>
            <circle cx="56.099" cy="56.098" r="56.098"/>
            <path style="fill:#414457;" d="M90.461,40.316c-2.404,1.066-4.99,1.787-7.702,2.109c2.769-1.659,4.894-4.284,5.897-7.417
			c-2.591,1.537-5.462,2.652-8.515,3.253c-2.446-2.605-5.931-4.233-9.79-4.233c-7.404,0-13.409,6.005-13.409,13.409
			c0,1.051,0.119,2.074,0.349,3.056c-11.144-0.559-21.025-5.897-27.639-14.012c-1.154,1.98-1.816,4.285-1.816,6.742
			c0,4.651,2.369,8.757,5.965,11.161c-2.197-0.069-4.266-0.672-6.073-1.679c-0.001,0.057-0.001,0.114-0.001,0.17
			c0,6.497,4.624,11.916,10.757,13.147c-1.124,0.308-2.311,0.471-3.532,0.471c-0.866,0-1.705-0.083-2.523-0.239
			c1.706,5.326,6.657,9.203,12.526,9.312c-4.59,3.597-10.371,5.74-16.655,5.74c-1.08,0-2.15-0.063-3.197-0.188
			c5.931,3.806,12.981,6.025,20.553,6.025c24.664,0,38.152-20.432,38.152-38.153c0-0.581-0.013-1.16-0.039-1.734
			C86.391,45.366,88.664,43.005,90.461,40.316L90.461,40.316z"/>
        </g>
    </symbol>
    <symbol id="upload" viewBox="0 0 395.104 395.104">
        <g>
            <path d="M360.693,198.729c1.373-6.779,2.1-13.794,2.1-20.979c0-58.085-47.088-105.173-105.174-105.173
				c-43.075,0-80.082,25.91-96.342,62.984c-12.494-8.139-27.381-12.912-43.403-12.912c-42.125,0-76.526,32.714-79.396,74.109
				C15.79,207.169,0,230.028,0,256.626c0,36.396,29.506,65.902,65.902,65.902c0,0,71.396,0,95.194,0
				c4.667,0,4.894-5.179,4.894-5.179v-42.28c0-3.612-2.955-6.567-6.568-6.567h-18.007c-3.612,0-4.809-2.375-2.658-5.276
				l54.887-74.094c2.15-2.902,5.668-2.902,7.818,0l54.886,74.094c2.148,2.901,0.953,5.276-2.657,5.276h-18.009
				c-3.61,0-6.567,2.955-6.567,6.567v42.364c0,0,0.274,5.095,5.108,5.095c23.746,0,94.979,0,94.979,0
				c36.396,0,65.902-29.506,65.902-65.902C395.104,231.639,381.191,209.901,360.693,198.729z"/>
        </g>
    </symbol>
    <symbol id="user" viewBox="0 0 60 60">
        <g>
            <path d="M48.014,42.889l-9.553-4.776C37.56,37.662,37,36.756,37,35.748v-3.381c0.229-0.28,0.47-0.599,0.719-0.951
	c1.239-1.75,2.232-3.698,2.954-5.799C42.084,24.97,43,23.575,43,22v-4c0-0.963-0.36-1.896-1-2.625v-5.319
	c0.056-0.55,0.276-3.824-2.092-6.525C37.854,1.188,34.521,0,30,0s-7.854,1.188-9.908,3.53C17.724,6.231,17.944,9.506,18,10.056
	v5.319c-0.64,0.729-1,1.662-1,2.625v4c0,1.217,0.553,2.352,1.497,3.109c0.916,3.627,2.833,6.36,3.503,7.237v3.309
	c0,0.968-0.528,1.856-1.377,2.32l-8.921,4.866C8.801,44.424,7,47.458,7,50.762V54c0,4.746,15.045,6,23,6s23-1.254,23-6v-3.043
	C53,47.519,51.089,44.427,48.014,42.889z"/>
        </g>
    </symbol>
</svg>


