<svg display="none" xmlns="http://www.w3.org/2000/svg">
    <symbol id="checked_icon" viewBox="0 0 24 24">
        <g>
            <polyline points="4 13 9 18 20 7"/>
        </g>
    </symbol>
    <symbol id="circle" viewBox="0 0 24 24">
        <g>
            <path d="M12 2C6.486 2 2 6.486 2 12s4.486 10 10 10 10-4.486 10-10S17.514 2 12 2z"/>
        </g>
    </symbol>
    <symbol id="chat" viewBox="0 0 297 297">
        <g>
            <path d="M206.093,181.516c17.379,0,31.515-14.138,31.515-31.515V54.593c0-17.378-14.136-31.518-31.515-31.518H31.51
		C14.135,23.075,0,37.215,0,54.593v95.408c0,17.377,14.135,31.515,31.51,31.515h22.933v32.988c0,4.012,2.416,7.627,6.121,9.162
		c1.228,0.507,2.516,0.753,3.792,0.753c2.58,0,5.117-1.007,7.014-2.904l39.991-39.999H206.093z"/>
            <path d="M269.415,105.583h-15.944v44.418c0,26.125-21.253,47.378-47.378,47.378h-88.161l-18.537,18.542
		c2.234,12.987,13.567,22.902,27.181,22.902h76.762l32.191,32.196c1.896,1.897,4.434,2.905,7.014,2.905
		c1.276,0,2.564-0.249,3.792-0.756c3.705-1.535,6.12-5.149,6.12-9.16v-25.186h16.961c15.211,0,27.585-12.378,27.585-27.591v-78.061
		C297,117.959,284.626,105.583,269.415,105.583z"/>
        </g>
    </symbol>
    <symbol id="amazon" viewBox="163.5 163.50000000000003 285 285">
        <g>
            <path d="m340.3 330.2c-16.5 12.2-40.5 18.7-61.2 18.7-29 0-55-10.7-74.8-28.5-1.5-1.4-.2-3.3 1.7-2.2 21.3 12.4 47.6 19.8 74.8 19.8 18.3 0 38.5-3.8 57.1-11.7 2.8-1.1 5.1 1.9 2.4 3.9z"
                  fill="#f90"/>
            <path d="m347.2 322.3c-2.1-2.7-14-1.3-19.3-.6-1.6.2-1.9-1.2-.4-2.2 9.5-6.7 25-4.7 26.8-2.5s-.5 17.8-9.4 25.2c-1.4 1.1-2.7.5-2.1-1 2-5 6.5-16.1 4.4-18.9z"
                  fill="#f90"/>
            <path d="m328.2 272.5v-6.5c0-1 .7-1.6 1.6-1.6h29c.9 0 1.7.7 1.7 1.6v5.5c0 .9-.8 2.1-2.2 4.1l-15 21.4c5.6-.1 11.5.7 16.5 3.5 1.1.6 1.4 1.6 1.5 2.5v6.9c0 1-1 2.1-2.1 1.5-8.9-4.7-20.8-5.2-30.6.1-1 .5-2.1-.5-2.1-1.5v-6.6c0-1 0-2.8 1.1-4.4l17.4-24.9h-15.1c-.9 0-1.7-.7-1.7-1.6zm-105.7 40.3h-8.8c-.8-.1-1.5-.7-1.6-1.5v-45.2c0-.9.8-1.6 1.7-1.6h8.2c.9 0 1.5.7 1.6 1.5v5.9h.2c2.1-5.7 6.2-8.4 11.6-8.4 5.5 0 9 2.7 11.4 8.4 2.1-5.7 7-8.4 12.2-8.4 3.7 0 7.7 1.5 10.2 5 2.8 3.8 2.2 9.3 2.2 14.2v28.6c0 .9-.8 1.6-1.7 1.6h-8.7c-.9-.1-1.6-.8-1.6-1.6v-24c0-1.9.2-6.7-.2-8.5-.7-3-2.6-3.9-5.2-3.9-2.1 0-4.4 1.4-5.3 3.7s-.8 6.1-.8 8.7v24c0 .9-.8 1.6-1.7 1.6h-8.8c-.9-.1-1.6-.8-1.6-1.6v-24c0-5 .8-12.5-5.4-12.5-6.3 0-6.1 7.2-6.1 12.5v24c-.1.8-.8 1.5-1.8 1.5zm163-49.3c13.1 0 20.2 11.2 20.2 25.5 0 13.8-7.8 24.8-20.2 24.8-12.8 0-19.8-11.2-19.8-25.2-.1-14.1 7-25.1 19.8-25.1zm0 9.3c-6.5 0-6.9 8.9-6.9 14.4s-.1 17.3 6.8 17.3c6.8 0 7.2-9.5 7.2-15.3 0-3.8-.2-8.4-1.3-12-1-3.2-3-4.4-5.8-4.4zm37.1 40h-8.8c-.9-.1-1.6-.8-1.6-1.6v-45.3c.1-.8.8-1.5 1.7-1.5h8.2c.8 0 1.4.6 1.6 1.3v6.9h.2c2.5-6.2 5.9-9.1 12-9.1 3.9 0 7.8 1.4 10.3 5.3 2.3 3.6 2.3 9.7 2.3 14.1v28.5c-.1.8-.8 1.4-1.7 1.4h-8.8c-.8-.1-1.5-.7-1.6-1.4v-24.6c0-5 .6-12.2-5.5-12.2-2.1 0-4.1 1.4-5.1 3.6-1.2 2.8-1.4 5.5-1.4 8.6v24.4c-.1.9-.9 1.6-1.8 1.6zm-117.5-21.6c0 3.4.1 6.3-1.6 9.4-1.4 2.5-3.6 4-6.1 4-3.4 0-5.4-2.6-5.4-6.4 0-7.5 6.7-8.9 13.1-8.9zm8.9 21.5c-.6.5-1.4.6-2.1.2-2.9-2.4-3.5-3.6-5.1-5.9-4.8 4.9-8.3 6.4-14.5 6.4-7.4 0-13.2-4.6-13.2-13.7 0-7.2 3.9-12 9.4-14.4 4.8-2.1 11.5-2.5 16.6-3.1v-1.1c0-2.1.2-4.6-1.1-6.4-1.1-1.6-3.1-2.3-4.9-2.3-3.4 0-6.4 1.7-7.1 5.3-.2.8-.7 1.6-1.5 1.6l-8.5-.9c-.7-.2-1.5-.7-1.3-1.8 2-10.4 11.3-13.5 19.7-13.5 4.3 0 9.9 1.1 13.3 4.4 4.3 4 3.9 9.4 3.9 15.2v13.7c0 4.1 1.7 5.9 3.3 8.2.6.8.7 1.8 0 2.3-1.9 1.5-5.1 4.3-6.9 5.8zm-124.4-21.5c0 3.4.1 6.3-1.6 9.4-1.4 2.5-3.6 4-6.1 4-3.4 0-5.4-2.6-5.4-6.4 0-7.5 6.7-8.9 13.1-8.9zm8.8 21.5c-.6.5-1.4.6-2.1.2-2.9-2.4-3.5-3.6-5.1-5.9-4.8 4.9-8.3 6.4-14.5 6.4-7.4 0-13.2-4.6-13.2-13.7 0-7.2 3.9-12 9.4-14.4 4.8-2.1 11.5-2.5 16.6-3.1v-1.1c0-2.1.2-4.6-1.1-6.4-1.1-1.6-3.1-2.3-4.9-2.3-3.4 0-6.4 1.7-7.1 5.3-.2.8-.7 1.6-1.5 1.6l-8.5-.9c-.7-.2-1.5-.7-1.3-1.8 2-10.4 11.3-13.5 19.7-13.5 4.3 0 9.9 1.1 13.3 4.4 4.3 4 3.9 9.4 3.9 15.2v13.7c0 4.1 1.7 5.9 3.3 8.2.6.8.7 1.8 0 2.3-1.9 1.5-5.1 4.3-6.9 5.8z"/>
        </g>
    </symbol>
    <symbol id="left_arrow" viewBox="0 0 512.001 512.001">
        <g>
            <path d="M488.728,232.727l-384,0.002v-34.911c0-9.413-5.671-17.9-14.367-21.501
	c-8.699-3.603-18.708-1.61-25.363,5.046L6.817,239.544c-9.089,9.089-9.089,23.824,0,32.912l58.182,58.182
	c4.453,4.453,10.404,6.817,16.462,6.817c2.998,0,6.021-0.58,8.901-1.772c8.696-3.603,14.367-12.088,14.367-21.501v-34.908l384-0.003
	c12.853,0,23.273-10.42,23.273-23.273C512.001,243.147,501.581,232.727,488.728,232.727z"/>
        </g>
    </symbol>
    <symbol id="compass" viewBox="0 0 95.098 95.098">
        <g>
            <path d="M47.549,0C21.288,0,0,21.288,0,47.549s21.288,47.549,47.549,47.549c26.262,0,47.549-21.288,47.549-47.549
			S73.811,0,47.549,0z M47.549,85.098C26.844,85.098,10,68.253,10,47.549S26.844,10,47.549,10s37.549,16.845,37.549,37.549
			S68.254,85.098,47.549,85.098z"/>
            <path d="M77.665,29.911c-0.25-0.428-0.755-0.633-1.231-0.503l-33.783,9.213c-0.186,0.052-0.355,0.151-0.492,0.288L17.596,63.865
			c-0.346,0.354-0.414,0.895-0.164,1.32c0.25,0.428,0.755,0.635,1.232,0.504l33.783-9.214c0.093-0.024,0.182-0.062,0.265-0.11
			c0.083-0.049,0.159-0.108,0.228-0.178l24.562-24.957C77.848,30.879,77.915,30.337,77.665,29.911z M26.705,59.756l16.46-16.725
			l6.179,10.551L26.705,59.756z"/>
        </g>
    </symbol>
    <symbol id="document" viewBox="0 0 488.9 488.9">
        <g>
            <path d="M438.9,126.9L332.8,7.3c-4.2-5.2-9.4-7.3-15.6-7.3H65.5C54.1,0,44.7,9.4,44.7,20.8v447.3c0,11.4,9.4,20.8,20.8,20.8
				h357.9c11.4,0,19.8-9.4,20.8-19.8V140.5C444.1,135.3,442.1,131.1,438.9,126.9z M337,73.6l40.7,46.1H337V73.6z M402.5,448.4
				l-316.2,0V40.6h210.1v98.8c0,11.4,9.4,20.8,20.8,20.8h85.3V448.4z"/>
            <path d="M136.2,235.1c0,11.4,9.4,20.8,20.8,20.8h174.8c11.4,0,20.8-9.4,20.8-20.8c0-11.4-9.4-20.8-20.8-20.8H157
				C145.6,214.3,136.2,223.7,136.2,235.1z"/>
            <path d="M331.8,343.3H157c-11.4,0-20.8,9.4-20.8,20.8c0,11.4,9.4,20.8,20.8,20.8h174.8c11.4,0,20.8-9.4,20.8-20.8
				C352.6,352.7,343.2,343.3,331.8,343.3z"/>
        </g>
    </symbol>
    <symbol id="error" viewBox="0 0 24 24">
        <g>
            <path d="m22 12c0 5.523-4.477 10-10 10-5.5228 0-10-4.477-10-10 0-5.5228 4.4772-10 10-10 5.523 0 10 4.4772 10 10z"
                  transform="translate(0 1029.4)" fill="#c0392b"/>
            <path d="m22 12c0 5.523-4.477 10-10 10-5.5228 0-10-4.477-10-10 0-5.5228 4.4772-10 10-10 5.523 0 10 4.4772 10 10z"
                  transform="translate(0 1028.4)" fill="#e74c3c"/>
            <path d="m7.0503 1037.8 3.5357 3.6-3.5357 3.5 1.4142 1.4 3.5355-3.5 3.536 3.5 1.414-1.4-3.536-3.5 3.536-3.6-1.414-1.4-3.536 3.5-3.5355-3.5-1.4142 1.4z"
                  fill="#c0392b"/>
            <path d="m7.0503 1036.8 3.5357 3.6-3.5357 3.5 1.4142 1.4 3.5355-3.5 3.536 3.5 1.414-1.4-3.536-3.5 3.536-3.6-1.414-1.4-3.536 3.5-3.5355-3.5-1.4142 1.4z"
                  fill="#ecf0f1"/>
        </g>
    </symbol>
    <symbol id="facebook" viewBox="0 0 112.196 112.196">
        <g>
            <circle cx="56.098" cy="56.098" r="56.098"/>
            <path style="fill:#FFFFFF;" d="M70.201,58.294h-10.01v36.672H45.025V58.294h-7.213V45.406h7.213v-8.34
		c0-5.964,2.833-15.303,15.301-15.303L71.56,21.81v12.51h-8.151c-1.337,0-3.217,0.668-3.217,3.513v7.585h11.334L70.201,58.294z"/>
        </g>
    </symbol>
    <symbol id="help" viewBox="0 0 100 100">
        <g>
            <path d="M48.864,16.562c-9.036,0-17.532,3.52-23.921,9.909c-6.39,6.39-9.908,14.884-9.908,23.92s3.519,17.53,9.908,23.92
		c6.389,6.39,14.884,9.908,23.92,9.908c9.035,0,17.531-3.519,23.92-9.908c13.189-13.19,13.189-34.651,0-47.842
		C66.395,20.08,57.899,16.562,48.864,16.562z M63.119,24.178l-7.496,7.498c-2.079-0.748-4.286-1.16-6.561-1.16
		c-2.239,0-4.411,0.399-6.461,1.125l-7.648-7.649c4.237-2.239,8.982-3.43,13.912-3.43C53.928,20.562,58.795,21.819,63.119,24.178z
		 M38.211,60.709c-5.982-5.982-5.982-15.717,0-21.699c2.899-2.898,6.753-4.494,10.851-4.494s7.952,1.596,10.85,4.494
		c5.982,5.982,5.982,15.718,0,21.701c-2.898,2.897-6.751,4.494-10.849,4.494C44.964,65.205,41.11,63.608,38.211,60.709z
		 M23.313,34.98l7.768,7.768c-1.723,4.375-1.779,9.248-0.195,13.663l-8.234,8.235c-2.359-4.324-3.617-9.192-3.617-14.256
		C19.035,44.871,20.526,39.583,23.313,34.98z M33.787,76.137l8.258-8.256c2.209,0.859,4.576,1.324,7.018,1.324
		c2.478,0,4.88-0.475,7.117-1.359l8.094,8.095c-4.602,2.787-9.891,4.278-15.41,4.278C43.477,80.219,38.312,78.796,33.787,76.137z
		 M75.255,64.294l-7.982-7.982c1.535-4.356,1.478-9.147-0.195-13.464l7.528-7.528C79.807,44.207,80.023,55.229,75.255,64.294z"/>
        </g>
    </symbol>
    <symbol id="horn" viewBox="0 0 512 512">
        <g>
            <polygon points="196.182,168.583 196.182,156.537 40.558,156.537 40.558,183.575 0,183.575 0,295.781 40.558,295.781
			40.558,322.817 74.438,322.817 74.438,322.819 168.926,322.819 168.926,322.817 196.182,322.817 196.182,310.771 196.184,310.772
			196.184,168.582 		"/>
            <polygon points="175.549,353.237 81.062,353.237 104.857,462.522 199.345,462.522 		"/>
            <path d="M262.026,147.465c-12.979,4.952-24.89,9.033-35.425,12.373v159.679c10.534,3.339,22.446,7.421,35.425,12.372
			c44.271,16.89,110.027,47.504,174.45,97.988V49.478C372.053,99.963,306.297,130.576,262.026,147.465z"/>
            <path d="M474.955,168.704h-8.063v141.947h8.063c20.426,0,37.045-16.618,37.045-37.045v-67.858
			C512,185.322,495.381,168.704,474.955,168.704z"/>
        </g>
    </symbol>
    <symbol id="info" viewBox="0 0 1024 1024">
        <g>
            <path
                    d="M512 64a448 448 0 110 896.064A448 448 0 01512 64zm67.2 275.072c33.28 0 60.288-23.104 60.288-57.344s-27.072-57.344-60.288-57.344c-33.28 0-60.16 23.104-60.16 57.344s26.88 57.344 60.16 57.344zM590.912 699.2c0-6.848 2.368-24.64 1.024-34.752l-52.608 60.544c-10.88 11.456-24.512 19.392-30.912 17.28a12.992 12.992 0 01-8.256-14.72l87.68-276.992c7.168-35.136-12.544-67.2-54.336-71.296-44.096 0-108.992 44.736-148.48 101.504 0 6.784-1.28 23.68.064 33.792l52.544-60.608c10.88-11.328 23.552-19.328 29.952-17.152a12.8 12.8 0 017.808 16.128L388.48 728.576c-10.048 32.256 8.96 63.872 55.04 71.04 67.84 0 107.904-43.648 147.456-100.416z"/>
        </g>
    </symbol>
    <symbol id="like" viewBox="0 0 460.958 460.958">
        <g>
            <path d="M337.843,23.957c-45.74,0-86.155,25.047-107.364,62.788c-21.209-37.741-61.623-62.788-107.364-62.788
			C55.229,23.957,0,79.186,0,147.072c0,54.355,37.736,119.46,112.16,193.506c54.115,53.84,107.363,92.031,109.603,93.631
			c2.607,1.861,5.662,2.792,8.716,2.792s6.109-0.93,8.715-2.792c2.241-1.6,55.489-39.791,109.604-93.631
			c74.424-74.046,112.16-139.151,112.16-193.506C460.958,79.186,405.729,23.957,337.843,23.957z M327.919,319.032
			c-39.843,39.681-80.171,71.279-97.44,84.307c-17.269-13.029-57.597-44.626-97.44-84.307C65.63,251.899,30,192.436,30,147.072
			c0-51.344,41.771-93.115,93.115-93.115c47.279,0,87.03,35.369,92.464,82.271c0.876,7.565,7.284,13.273,14.9,13.273
			c7.616,0,14.023-5.708,14.9-13.273c5.435-46.902,45.185-82.271,92.464-82.271c51.344,0,93.115,41.771,93.115,93.115
			C430.958,192.436,395.328,251.899,327.919,319.032z"/>
        </g>
    </symbol>
    <symbol id="linkedin" viewBox="0 0 291.319 291.319">
        <g>
            <path d="M145.659,0c80.45,0,145.66,65.219,145.66,145.66s-65.21,145.659-145.66,145.659S0,226.1,0,145.66
		S65.21,0,145.659,0z"/>
            <path style="fill:#FFFFFF;" d="M82.079,200.136h27.275v-90.91H82.079V200.136z M188.338,106.077
		c-13.237,0-25.081,4.834-33.483,15.504v-12.654H127.48v91.21h27.375v-49.324c0-10.424,9.55-20.593,21.512-20.593
		s14.912,10.169,14.912,20.338v49.57h27.275v-51.6C218.553,112.686,201.584,106.077,188.338,106.077z M95.589,100.141
		c7.538,0,13.656-6.118,13.656-13.656S103.127,72.83,95.589,72.83s-13.656,6.118-13.656,13.656S88.051,100.141,95.589,100.141z"/>
        </g>
    </symbol>
    <symbol id="mastercard" viewBox="0 -140 780 780">
        <g>
            <rect width="780" height="500" fill="#FFF" stroke-width="15px" stroke="#424141"/>
            <path d="m449.01 250c0 99.143-80.371 179.5-179.51 179.5s-179.5-80.361-179.5-179.5c0-99.133 80.362-179.5 179.5-179.5 99.137 0 179.51 80.371 179.51 179.5"
                  fill="#D9222A"/>
            <path d="m510.49 70.496c-46.379 0-88.643 17.596-120.5 46.467-6.49 5.889-12.548 12.237-18.125 18.996h36.267c4.965 6.037 9.536 12.387 13.685 19.012h-63.635c-3.827 6.122-7.281 12.469-10.342 19.008h84.313c2.894 6.185 5.431 12.53 7.601 19.004h-99.513c-2.09 6.234-3.832 12.58-5.217 19.008h109.94c2.689 12.49 4.045 25.231 4.042 38.008 0 19.935-3.254 39.112-9.254 57.021h-99.513c2.164 6.477 4.7 12.824 7.596 19.008h84.316c-3.063 6.541-6.519 12.889-10.347 19.013h-63.625c4.147 6.62 8.719 12.966 13.685 18.996h36.259c-5.57 6.772-11.63 13.127-18.13 19.013 31.857 28.866 74.117 46.454 120.5 46.454 99.139 0 179.51-80.361 179.51-179.5 0-99.129-80.371-179.5-179.51-179.5"
                  fill="#EE9F2D"/>
            <path d="m666.07 350.06c0-3.199 2.592-5.801 5.796-5.801s5.796 2.602 5.796 5.801-2.592 5.801-5.796 5.801-5.796-2.602-5.796-5.801zm5.796 4.408c2.434-1e-3 4.407-1.974 4.408-4.408 0-2.432-1.971-4.402-4.402-4.404h-6e-3c-2.429-3e-3 -4.4 1.963-4.404 4.391v0.014c-2e-3 2.433 1.968 4.406 4.4 4.408 1e-3 -1e-3 3e-3 -1e-3 4e-3 -1e-3zm-0.783-1.86h-1.187v-5.096h2.149c0.45 0 0.908 0 1.305 0.254 0.413 0.279 0.646 0.771 0.646 1.279 0 0.571-0.338 1.104-0.884 1.312l0.938 2.25h-1.315l-0.779-2.017h-0.871l-2e-3 2.018zm0-2.89h0.658c0.246 0 0.505 0.021 0.726-0.1 0.195-0.125 0.296-0.359 0.296-0.584-5e-3 -0.209-0.112-0.402-0.288-0.518-0.207-0.129-0.536-0.101-0.758-0.101h-0.634v1.303zm-443.5-80.063c-2.046-0.238-2.945-0.301-4.35-0.301-11.046 0-16.638 3.787-16.638 11.268 0 4.611 2.729 7.545 6.987 7.545 7.939 0 13.659-7.559 14.001-18.512zm14.171 32.996h-16.146l0.371-7.676c-4.926 6.065-11.496 8.949-20.426 8.949-10.563 0-17.804-8.25-17.804-20.229 0-18.024 12.596-28.541 34.217-28.541 2.208 0 5.042 0.199 7.941 0.57 0.604-2.441 0.763-3.488 0.763-4.801 0-4.908-3.396-6.737-12.5-6.737-9.533-0.108-17.396 2.271-20.625 3.333 0.204-1.229 2.7-16.659 2.7-16.659 9.712-2.846 16.116-3.917 23.325-3.917 16.732 0 25.596 7.513 25.579 21.712 0.033 3.805-0.597 8.5-1.579 14.671-1.691 10.734-5.32 33.721-5.816 39.325zm-62.158 0h-19.487l11.162-69.997-24.925 69.997h-13.279l-1.642-69.597-11.733 69.597h-18.242l15.237-91.056h28.021l1.7 50.968 17.092-50.968h31.167l-15.071 91.056m354.97-32.996c-2.037-0.238-2.941-0.301-4.342-0.301-11.041 0-16.634 3.787-16.634 11.268 0 4.611 2.726 7.545 6.983 7.545 7.94 0 13.664-7.559 13.993-18.512zm14.184 32.996h-16.146l0.366-7.676c-4.926 6.065-11.5 8.949-20.422 8.949-10.565 0-17.8-8.25-17.8-20.229 0-18.024 12.588-28.541 34.213-28.541 2.208 0 5.037 0.199 7.934 0.57 0.604-2.441 0.763-3.488 0.763-4.801 0-4.908-3.392-6.737-12.496-6.737-9.533-0.108-17.387 2.271-20.629 3.333 0.204-1.229 2.709-16.659 2.709-16.659 9.712-2.846 16.112-3.917 23.313-3.917 16.74 0 25.604 7.513 25.587 21.712 0.032 3.805-0.597 8.5-1.579 14.671-1.684 10.734-5.321 33.721-5.813 39.325zm-220.39-1.125c-5.333 1.679-9.491 2.398-14 2.398-9.962 0-15.399-5.725-15.399-16.267-0.142-3.271 1.433-11.88 2.671-19.737 1.125-6.917 8.449-50.529 8.449-50.529h19.371l-2.263 11.208h11.699l-2.642 17.796h-11.742c-2.25 14.083-5.454 31.625-5.491 33.95 0 3.816 2.037 5.483 6.671 5.483 2.221 0 3.94-0.227 5.254-0.7l-2.578 16.398m59.392-0.6c-6.654 2.034-13.075 3.017-19.879 3-21.684-0.021-32.987-11.346-32.987-33.032 0-25.313 14.38-43.947 33.899-43.947 15.971 0 26.171 10.433 26.171 26.796 0 5.429-0.7 10.729-2.388 18.212h-38.574c-1.305 10.741 5.57 15.217 16.837 15.217 6.935 0 13.188-1.429 20.142-4.663l-3.221 18.417zm-10.888-43.9c0.107-1.543 2.055-13.217-9.013-13.217-6.171 0-10.583 4.704-12.38 13.217h21.393zm-123.42-5.017c0 9.367 4.542 15.826 14.842 20.676 7.892 3.709 9.112 4.81 9.112 8.17 0 4.617-3.479 6.701-11.191 6.701-5.813 0-11.221-0.908-17.458-2.922 0 0-2.563 16.321-2.68 17.102 4.43 0.967 8.38 1.861 20.279 2.19 20.563 0 30.059-7.829 30.059-24.75 0-10.175-3.976-16.146-13.737-20.634-8.171-3.75-9.108-4.587-9.108-8.045 0-4.004 3.237-6.046 9.537-6.046 3.825 0 9.05 0.408 14 1.112l2.775-17.175c-5.046-0.8-12.696-1.442-17.15-1.442-21.801 1e-3 -29.347 11.388-29.28 25.063m229.09-23.116c5.412 0 10.458 1.421 17.412 4.921l3.188-19.763c-2.854-1.121-12.904-7.7-21.417-7.7-13.041 0-24.065 6.471-31.82 17.15-11.309-3.746-15.958 3.825-21.657 11.367l-5.063 1.179c0.383-2.483 0.729-4.95 0.612-7.446h-17.896c-2.445 22.917-6.778 46.128-10.171 69.075l-0.884 4.976h19.496c3.254-21.143 5.037-34.68 6.121-43.842l7.341-4.084c1.097-4.078 4.529-5.458 11.417-5.291-0.926 5.008-1.389 10.091-1.383 15.184 0 24.225 13.07 39.308 34.05 39.308 5.404 0 10.041-0.712 17.221-2.658l3.43-20.759c-6.458 3.181-11.759 4.677-16.559 4.677-11.329 0-18.184-8.363-18.184-22.185 0-20.051 10.196-34.109 24.746-34.109"/>
            <path d="m185.21 297.24h-19.491l11.171-69.988-24.926 69.988h-13.283l-1.642-69.588-11.733 69.588h-18.241l15.237-91.042h28.021l0.788 56.362 18.904-56.362h30.267l-15.072 91.042"
                  fill="#fff"/>
            <path d="m647.52 211.6l-4.321 26.309c-5.329-7.013-11.054-12.088-18.612-12.088-9.833 0-18.783 7.455-24.642 18.425-8.158-1.692-16.597-4.563-16.597-4.563l-4e-3 0.067c0.658-6.134 0.921-9.875 0.862-11.146h-17.9c-2.438 22.917-6.771 46.128-10.157 69.075l-0.893 4.976h19.492c2.633-17.096 4.648-31.291 6.133-42.551 6.658-6.016 9.992-11.266 16.721-10.916-2.979 7.205-4.725 15.503-4.725 24.017 0 18.513 9.366 30.725 23.533 30.725 7.142 0 12.621-2.462 17.967-8.171l-0.913 6.884h18.435l14.842-91.042-19.221-1e-3zm-24.371 73.941c-6.634 0-9.983-4.908-9.983-14.596 0-14.555 6.271-24.875 15.112-24.875 6.695 0 10.32 5.104 10.32 14.509 1e-3 14.679-6.37 24.962-15.449 24.962z"/>
            <path d="m233.19 264.26c-2.042-0.236-2.946-0.299-4.346-0.299-11.046 0-16.634 3.787-16.634 11.266 0 4.604 2.729 7.547 6.979 7.547 7.947-1e-3 13.668-7.559 14.001-18.514zm14.178 32.984h-16.146l0.367-7.663c-4.921 6.054-11.5 8.95-20.421 8.95-10.567 0-17.805-8.25-17.805-20.229 0-18.032 12.592-28.542 34.217-28.542 2.208 0 5.042 0.2 7.938 0.571 0.604-2.441 0.763-3.487 0.763-4.808 0-4.909-3.392-6.729-12.496-6.729-9.537-0.108-17.396 2.271-20.629 3.321 0.204-1.225 2.7-16.637 2.7-16.637 9.708-2.858 16.12-3.929 23.32-3.929 16.737 0 25.604 7.517 25.588 21.704 0.029 3.821-0.604 8.513-1.584 14.675-1.687 10.724-5.319 33.724-5.812 39.316zm261.38-88.592l-3.191 19.767c-6.95-3.496-12-4.92-17.407-4.92-14.551 0-24.75 14.058-24.75 34.106 0 13.821 6.857 22.181 18.184 22.181 4.8 0 10.096-1.492 16.554-4.675l-3.421 20.75c-7.184 1.957-11.816 2.67-17.225 2.67-20.977 0-34.051-15.084-34.051-39.309 0-32.55 18.059-55.3 43.888-55.3 8.507 1e-3 18.561 3.609 21.419 4.73m31.443 55.608c-2.041-0.236-2.941-0.299-4.347-0.299-11.041 0-16.633 3.787-16.633 11.266 0 4.604 2.729 7.547 6.983 7.547 7.938-1e-3 13.663-7.559 13.997-18.514zm14.178 32.984h-16.15l0.371-7.663c-4.925 6.054-11.5 8.95-20.421 8.95-10.563 0-17.804-8.25-17.804-20.229 0-18.032 12.596-28.542 34.212-28.542 2.213 0 5.042 0.2 7.941 0.571 0.601-2.441 0.763-3.487 0.763-4.808 0-4.909-3.393-6.729-12.495-6.729-9.533-0.108-17.396 2.271-20.63 3.321 0.204-1.225 2.704-16.637 2.704-16.637 9.709-2.858 16.116-3.929 23.316-3.929 16.741 0 25.604 7.517 25.583 21.704 0.033 3.821-0.596 8.513-1.579 14.675-1.682 10.724-5.323 33.724-5.811 39.316zm-220.39-1.121c-5.338 1.679-9.496 2.408-14 2.408-9.962 0-15.399-5.726-15.399-16.268-0.138-3.279 1.438-11.88 2.675-19.736 1.12-6.926 8.445-50.534 8.445-50.534h19.368l-2.26 11.212h9.941l-2.646 17.788h-9.975c-2.25 14.092-5.463 31.62-5.496 33.95 0 3.83 2.041 5.482 6.671 5.482 2.221 0 3.938-0.216 5.254-0.691l-2.578 16.389m59.391-0.592c-6.65 2.033-13.079 3.012-19.879 3-21.685-0.021-32.987-11.346-32.987-33.033 0-25.321 14.379-43.95 33.899-43.95 15.971 0 26.171 10.429 26.171 26.8 0 5.434-0.7 10.733-2.384 18.212h-38.574c-1.306 10.741 5.569 15.222 16.837 15.222 6.93 0 13.188-1.435 20.138-4.677l-3.221 18.426zm-10.891-43.912c0.116-1.538 2.06-13.217-9.013-13.217-6.167 0-10.579 4.717-12.375 13.217h21.388zm-123.42-5.005c0 9.367 4.542 15.818 14.842 20.675 7.892 3.709 9.112 4.812 9.112 8.172 0 4.616-3.483 6.699-11.188 6.699-5.816 0-11.225-0.908-17.467-2.921 0 0-2.554 16.321-2.671 17.101 4.421 0.967 8.375 1.85 20.275 2.191 20.566 0 30.059-7.829 30.059-24.746 0-10.18-3.971-16.15-13.737-20.637-8.167-3.759-9.113-4.584-9.113-8.046 0-4 3.246-6.059 9.542-6.059 3.821 0 9.046 0.421 14.004 1.125l2.771-17.179c-5.042-0.8-12.692-1.441-17.146-1.441-21.804 0-29.346 11.379-29.283 25.066m398.45 50.63h-18.438l0.917-6.893c-5.347 5.717-10.825 8.18-17.968 8.18-14.166 0-23.528-12.213-23.528-30.726 0-24.63 14.521-45.392 31.708-45.392 7.559 0 13.279 3.087 18.604 10.096l4.325-26.308h19.221l-14.841 91.043zm-28.746-17.109c9.075 0 15.45-10.283 15.45-24.953 0-9.405-3.629-14.509-10.325-14.509-8.837 0-15.115 10.315-15.115 24.875-1e-3 9.686 3.357 14.587 9.99 14.587zm-56.842-56.929c-2.441 22.917-6.773 46.13-10.162 69.063l-0.892 4.976h19.491c6.972-45.275 8.658-54.117 19.588-53.009 1.742-9.267 4.982-17.383 7.399-21.479-8.163-1.7-12.721 2.913-18.688 11.675 0.471-3.788 1.333-7.467 1.162-11.225l-17.898-1e-3m-160.42 0c-2.446 22.917-6.779 46.13-10.167 69.063l-0.888 4.976h19.5c6.963-45.275 8.646-54.117 19.57-53.009 1.75-9.267 4.991-17.383 7.399-21.479-8.154-1.7-12.717 2.913-18.679 11.675 0.471-3.788 1.324-7.467 1.162-11.225l-17.897-1e-3m254.57 68.241c-4e-3 -3.199 2.586-5.795 5.784-5.799h0.012c3.197-4e-3 5.793 2.586 5.796 5.783v0.016c-1e-3 3.201-2.595 5.795-5.796 5.797-3.201-2e-3 -5.795-2.596-5.796-5.797zm5.796 4.405c2.431 2e-3 4.402-1.969 4.403-4.399v-4e-3c3e-3 -2.433-1.968-4.406-4.399-4.408h-4e-3c-2.435 1e-3 -4.407 1.974-4.408 4.408 2e-3 2.432 1.975 4.403 4.408 4.403zm-0.784-1.871h-1.188v-5.082h2.153c0.446 0 0.909 9e-3 1.296 0.254 0.417 0.283 0.654 0.767 0.654 1.274 0 0.575-0.337 1.112-0.888 1.317l0.941 2.236h-1.32l-0.779-2.009h-0.87l1e-3 2.01zm0-2.879h0.653c0.246 0 0.513 0.019 0.729-0.1 0.196-0.125 0.296-0.361 0.296-0.588-9e-3 -0.21-0.114-0.404-0.287-0.523-0.204-0.117-0.542-0.084-0.763-0.084h-0.629l1e-3 1.295z"
                  fill="#fff"/>
        </g>
    </symbol>
    <symbol id="order" viewBox="0 0 100 100">
        <g>
            <path d="M39,32H61a2,2,0,0,0,2-2V26a6,6,0,0,0-6-6H43a6,6,0,0,0-6,6v4A2,2,0,0,0,39,32Zm33-7H70a.94.94,0,0,0-1,1v4a8,8,0,0,1-8,8H39a8,8,0,0,1-8-8V26a.94.94,0,0,0-1-1H28a6,6,0,0,0-6,6V74a6,6,0,0,0,6,6H72a6,6,0,0,0,6-6V31A6,6,0,0,0,72,25ZM39,68a2,2,0,0,1-2,2H35a2,2,0,0,1-2-2V66a2,2,0,0,1,2-2h2a2,2,0,0,1,2,2Zm0-10a2,2,0,0,1-2,2H35a2,2,0,0,1-2-2V56a2,2,0,0,1,2-2h2a2,2,0,0,1,2,2Zm0-10a2,2,0,0,1-2,2H35a2,2,0,0,1-2-2V46a2,2,0,0,1,2-2h2a2,2,0,0,1,2,2ZM67,68a2,2,0,0,1-2,2H45a2,2,0,0,1-2-2V66a2,2,0,0,1,2-2H65a2,2,0,0,1,2,2Zm0-10a2,2,0,0,1-2,2H45a2,2,0,0,1-2-2V56a2,2,0,0,1,2-2H65a2,2,0,0,1,2,2Zm0-10a2,2,0,0,1-2,2H45a2,2,0,0,1-2-2V46a2,2,0,0,1,2-2H65a2,2,0,0,1,2,2Z"/>
        </g>
    </symbol>
    <symbol id="paypal" viewBox="0 -140 780 780">
        <g>
            <path d="m168.38 169.85c-8.399-5.774-19.359-8.668-32.88-8.668h-52.346c-4.145 0-6.435 2.073-6.87 6.214l-21.265 133.48c-0.221 1.311 0.107 2.51 0.981 3.6 0.869 1.093 1.962 1.636 3.271 1.636h24.864c4.361 0 6.758-2.068 7.198-6.216l5.888-35.985c0.215-1.744 0.982-3.162 2.291-4.254 1.308-1.09 2.944-1.804 4.907-2.13 1.963-0.324 3.814-0.487 5.562-0.487 1.743 0 3.814 0.11 6.217 0.327 2.397 0.218 3.925 0.324 4.58 0.324 18.756 0 33.478-5.285 44.167-15.866 10.684-10.577 16.032-25.244 16.032-44.004 0-12.868-4.202-22.192-12.597-27.975zm-26.99 40.08c-1.094 7.635-3.926 12.649-8.506 15.049-4.581 2.403-11.124 3.597-19.629 3.597l-10.797 0.328 5.563-35.007c0.434-2.397 1.851-3.597 4.252-3.597h6.218c8.72 0 15.049 1.257 18.975 3.761 3.924 2.51 5.233 7.802 3.924 15.869z"
                  fill="#003087"/>
            <path d="m720.79 161.18h-24.208c-2.405 0-3.821 1.2-4.253 3.599l-21.267 136.1-0.328 0.654c0 1.096 0.437 2.127 1.311 3.109 0.868 0.979 1.963 1.471 3.271 1.471h21.595c4.138 0 6.429-2.068 6.871-6.215l21.265-133.81v-0.325c-2e-3 -3.053-1.424-4.58-4.257-4.58z"
                  fill="#009CDE"/>
            <path d="m428.31 213.86c0-1.088-0.438-2.126-1.306-3.106-0.875-0.981-1.857-1.474-2.945-1.474h-25.191c-2.404 0-4.366 1.096-5.89 3.271l-34.679 51.04-14.394-49.075c-1.096-3.488-3.493-5.236-7.198-5.236h-24.54c-1.093 0-2.075 0.492-2.942 1.474-0.875 0.98-1.309 2.019-1.309 3.106 0 0.44 2.127 6.871 6.379 19.303 4.252 12.434 8.833 25.848 13.741 40.244 4.908 14.394 7.468 22.031 7.688 22.898-17.886 24.43-26.826 37.518-26.826 39.26 0 2.838 1.417 4.254 4.253 4.254h25.191c2.399 0 4.361-1.088 5.89-3.271l83.427-120.4c0.433-0.433 0.651-1.193 0.651-2.289z"
                  fill="#003087"/>
            <path d="m662.89 209.28h-24.865c-3.056 0-4.904 3.599-5.559 10.797-5.677-8.72-16.031-13.088-31.083-13.088-15.704 0-29.065 5.89-40.077 17.668-11.016 11.779-16.521 25.631-16.521 41.551 0 12.871 3.761 23.121 11.285 30.752 7.524 7.639 17.611 11.451 30.266 11.451 6.323 0 12.757-1.311 19.3-3.926 6.544-2.617 11.665-6.105 15.379-10.469 0 0.219-0.222 1.198-0.654 2.942-0.44 1.748-0.655 3.06-0.655 3.926 0 3.494 1.414 5.234 4.254 5.234h22.576c4.138 0 6.541-2.068 7.193-6.216l13.415-85.389c0.215-1.309-0.111-2.507-0.981-3.599-0.876-1.087-1.964-1.634-3.273-1.634zm-42.694 64.452c-5.562 5.453-12.269 8.179-20.12 8.179-6.328 0-11.449-1.742-15.377-5.234-3.928-3.483-5.891-8.282-5.891-14.396 0-8.064 2.727-14.884 8.181-20.446 5.446-5.562 12.214-8.343 20.284-8.343 6.102 0 11.174 1.8 15.212 5.397 4.032 3.599 6.055 8.563 6.055 14.888-1e-3 7.851-2.783 14.505-8.344 19.955z"
                  fill="#009CDE"/>
            <path d="m291.23 209.28h-24.864c-3.058 0-4.908 3.599-5.563 10.797-5.889-8.72-16.25-13.088-31.081-13.088-15.704 0-29.065 5.89-40.078 17.668-11.016 11.779-16.521 25.631-16.521 41.551 0 12.871 3.763 23.121 11.288 30.752 7.525 7.639 17.61 11.451 30.262 11.451 6.104 0 12.433-1.311 18.975-3.926 6.543-2.617 11.778-6.105 15.704-10.469-0.875 2.616-1.309 4.907-1.309 6.868 0 3.494 1.417 5.234 4.253 5.234h22.574c4.141 0 6.543-2.068 7.198-6.216l13.413-85.389c0.215-1.309-0.112-2.507-0.981-3.599-0.873-1.087-1.962-1.634-3.27-1.634zm-42.695 64.614c-5.563 5.351-12.382 8.017-20.447 8.017-6.329 0-11.4-1.742-15.214-5.234-3.819-3.483-5.726-8.282-5.726-14.396 0-8.064 2.725-14.884 8.18-20.446 5.449-5.562 12.211-8.343 20.284-8.343 6.104 0 11.175 1.8 15.214 5.398 4.032 3.599 6.052 8.563 6.052 14.888 0 8.069-2.781 14.778-8.343 20.116z"
                  fill="#003087"/>
            <path d="m540.04 169.85c-8.398-5.774-19.356-8.668-32.879-8.668h-52.02c-4.364 0-6.765 2.073-7.197 6.214l-21.266 133.48c-0.221 1.312 0.106 2.511 0.981 3.601 0.865 1.092 1.962 1.635 3.271 1.635h26.826c2.617 0 4.361-1.416 5.235-4.252l5.89-37.949c0.216-1.744 0.98-3.162 2.29-4.254 1.309-1.09 2.943-1.803 4.908-2.13 1.962-0.324 3.812-0.487 5.562-0.487 1.743 0 3.814 0.11 6.214 0.327 2.399 0.218 3.931 0.324 4.58 0.324 18.76 0 33.479-5.285 44.168-15.866 10.688-10.577 16.031-25.244 16.031-44.004 2e-3 -12.867-4.199-22.191-12.594-27.974zm-33.534 53.82c-4.799 3.271-11.997 4.906-21.592 4.906l-10.47 0.328 5.562-35.007c0.432-2.397 1.849-3.597 4.252-3.597h5.887c4.798 0 8.614 0.218 11.454 0.653 2.831 0.44 5.562 1.799 8.179 4.089 2.618 2.291 3.926 5.618 3.926 9.98 0 9.16-2.402 15.375-7.198 18.648z"
                  fill="#009CDE"/>
        </g>
    </symbol>
    <symbol id="plus" viewBox="0 0 60.364 60.364">
        <g>
            <path d="M54.454,23.18l-18.609-0.002L35.844,5.91C35.845,2.646,33.198,0,29.934,0c-3.263,0-5.909,2.646-5.909,5.91v17.269
		L5.91,23.178C2.646,23.179,0,25.825,0,29.088c0.002,3.264,2.646,5.909,5.91,5.909h18.115v19.457c0,3.267,2.646,5.91,5.91,5.91
		c3.264,0,5.909-2.646,5.91-5.908V34.997h18.611c3.262,0,5.908-2.645,5.908-5.907C60.367,25.824,57.718,23.178,54.454,23.18z"/>
        </g>
    </symbol>
    <symbol id="share" viewBox="0 0 227.216 227.216">
        <g>
            <path d="M175.897,141.476c-13.249,0-25.11,6.044-32.98,15.518l-51.194-29.066c1.592-4.48,2.467-9.297,2.467-14.317
	c0-5.019-0.875-9.836-2.467-14.316l51.19-29.073c7.869,9.477,19.732,15.523,32.982,15.523c23.634,0,42.862-19.235,42.862-42.879
	C218.759,19.229,199.531,0,175.897,0C152.26,0,133.03,19.229,133.03,42.865c0,5.02,0.874,9.838,2.467,14.319L84.304,86.258
	c-7.869-9.472-19.729-15.514-32.975-15.514c-23.64,0-42.873,19.229-42.873,42.866c0,23.636,19.233,42.865,42.873,42.865
	c13.246,0,25.105-6.042,32.974-15.513l51.194,29.067c-1.593,4.481-2.468,9.3-2.468,14.321c0,23.636,19.23,42.865,42.867,42.865
	c23.634,0,42.862-19.23,42.862-42.865C218.759,160.71,199.531,141.476,175.897,141.476z M175.897,15
	c15.363,0,27.862,12.5,27.862,27.865c0,15.373-12.499,27.879-27.862,27.879c-15.366,0-27.867-12.506-27.867-27.879
	C148.03,27.5,160.531,15,175.897,15z M51.33,141.476c-15.369,0-27.873-12.501-27.873-27.865c0-15.366,12.504-27.866,27.873-27.866
	c15.363,0,27.861,12.5,27.861,27.866C79.191,128.975,66.692,141.476,51.33,141.476z M175.897,212.216
	c-15.366,0-27.867-12.501-27.867-27.865c0-15.37,12.501-27.875,27.867-27.875c15.363,0,27.862,12.505,27.862,27.875
	C203.759,199.715,191.26,212.216,175.897,212.216z"/>
        </g>
    </symbol>
    <symbol id="suitcase" viewBox="0 0 107.516 107.516">
        <g>
            <path d="M18.46,25.75v72.354H9.598c-1.045,0-2.137-0.24-3.271-0.741c-1.142-0.49-2.172-1.145-3.092-1.983
		c-0.923-0.827-1.696-1.768-2.308-2.813C0.308,91.518,0,90.445,0,89.339V34.332c0-0.923,0.308-1.893,0.927-2.906
		c0.612-1.013,1.385-1.936,2.308-2.766c0.92-0.827,1.922-1.525,2.999-2.072c1.081-0.551,2.072-0.83,3.003-0.83L18.46,25.75
		L18.46,25.75z M24.093,25.839h14.484V14.487c0-0.49,0.172-1.027,0.512-1.614c0.336-0.58,0.773-1.134,1.288-1.657
		c0.523-0.523,1.095-0.959,1.714-1.292c0.612-0.336,1.167-0.512,1.661-0.512h20.024c0.555,0,1.156,0.175,1.804,0.512
		c0.651,0.344,1.217,0.769,1.707,1.292c0.497,0.523,0.913,1.106,1.253,1.746c0.336,0.651,0.505,1.245,0.505,1.804v11.073h14.398
		V98.1H24.104V25.839H24.093z M44.116,14.952V25.75h19.473V14.952H44.116z M89.156,25.75h9.416c0.916,0,1.9,0.279,2.949,0.83
		s2.011,1.26,2.906,2.122c0.891,0.859,1.628,1.8,2.208,2.813c0.587,1.02,0.88,1.958,0.88,2.817v55.003
		c0,1.109-0.293,2.176-0.88,3.225c-0.58,1.045-1.335,1.983-2.258,2.813c-0.927,0.83-1.936,1.492-3.049,1.986
		c-1.113,0.497-2.18,0.741-3.228,0.741h-8.947V25.75H89.156z"/>
        </g>
    </symbol>
    <symbol id="trash" viewBox="0 0 307.252 307.252">
        <g>
            <path id="XMLID_564_" d="M184.581,230.833l9.521-100.238c0.575-6.048,5.931-10.48,11.991-9.911
	c6.048,0.575,10.485,5.943,9.911,11.991l-9.521,100.238c-0.541,5.694-5.332,9.961-10.938,9.961c-0.348,0-0.699-0.017-1.053-0.05
	C188.444,242.249,184.007,236.881,184.581,230.833z M45.306,37.023h216.644c6.075,0,11-4.925,11-11s-4.925-11-11-11h-61.998
	c0.49-1.246,0.759-2.604,0.759-4.023c0-6.075-4.925-11-11-11h-72.165c-6.075,0-11,4.925-11,11c0,1.42,0.269,2.777,0.759,4.023
	H45.306c-6.075,0-11,4.925-11,11S39.23,37.023,45.306,37.023z M153.624,260.644c6.075,0,11-4.925,11-11V113.864
	c0-6.075-4.925-11-11-11s-11,4.925-11,11v135.779C142.624,255.719,147.549,260.644,153.624,260.644z M273.279,68.477l-25.58,228.996
	c-0.622,5.568-5.329,9.779-10.932,9.779H70.484c-5.603,0-10.31-4.211-10.932-9.779L33.973,68.477
	c-0.348-3.11,0.646-6.222,2.733-8.555c2.086-2.333,5.068-3.666,8.198-3.666h217.443c3.13,0,6.112,1.333,8.198,3.666
	C272.633,62.255,273.627,65.366,273.279,68.477z M250.051,78.256H57.201l23.123,206.996h146.604L250.051,78.256z M100.772,232.913
	c0.54,5.694,5.33,9.961,10.938,9.961c0.348,0,0.699-0.017,1.053-0.05c6.048-0.575,10.485-5.943,9.911-11.991l-9.52-100.238
	c-0.575-6.048-5.938-10.484-11.991-9.911c-6.048,0.575-10.485,5.943-9.911,11.991L100.772,232.913z"/>
        </g>
    </symbol>
    <symbol id="twitter" viewBox="0 0 112.197 112.197">
        <g>
            <circle cx="56.099" cy="56.098" r="56.098"/>
            <path style="fill:#FFFFFF;" d="M90.461,40.316c-2.404,1.066-4.99,1.787-7.702,2.109c2.769-1.659,4.894-4.284,5.897-7.417
			c-2.591,1.537-5.462,2.652-8.515,3.253c-2.446-2.605-5.931-4.233-9.79-4.233c-7.404,0-13.409,6.005-13.409,13.409
			c0,1.051,0.119,2.074,0.349,3.056c-11.144-0.559-21.025-5.897-27.639-14.012c-1.154,1.98-1.816,4.285-1.816,6.742
			c0,4.651,2.369,8.757,5.965,11.161c-2.197-0.069-4.266-0.672-6.073-1.679c-0.001,0.057-0.001,0.114-0.001,0.17
			c0,6.497,4.624,11.916,10.757,13.147c-1.124,0.308-2.311,0.471-3.532,0.471c-0.866,0-1.705-0.083-2.523-0.239
			c1.706,5.326,6.657,9.203,12.526,9.312c-4.59,3.597-10.371,5.74-16.655,5.74c-1.08,0-2.15-0.063-3.197-0.188
			c5.931,3.806,12.981,6.025,20.553,6.025c24.664,0,38.152-20.432,38.152-38.153c0-0.581-0.013-1.16-0.039-1.734
			C86.391,45.366,88.664,43.005,90.461,40.316L90.461,40.316z"/>
        </g>
    </symbol>
    <symbol id="upload" viewBox="0 0 395.104 395.104">
        <g>
            <path d="M360.693,198.729c1.373-6.779,2.1-13.794,2.1-20.979c0-58.085-47.088-105.173-105.174-105.173
				c-43.075,0-80.082,25.91-96.342,62.984c-12.494-8.139-27.381-12.912-43.403-12.912c-42.125,0-76.526,32.714-79.396,74.109
				C15.79,207.169,0,230.028,0,256.626c0,36.396,29.506,65.902,65.902,65.902c0,0,71.396,0,95.194,0
				c4.667,0,4.894-5.179,4.894-5.179v-42.28c0-3.612-2.955-6.567-6.568-6.567h-18.007c-3.612,0-4.809-2.375-2.658-5.276
				l54.887-74.094c2.15-2.902,5.668-2.902,7.818,0l54.886,74.094c2.148,2.901,0.953,5.276-2.657,5.276h-18.009
				c-3.61,0-6.567,2.955-6.567,6.567v42.364c0,0,0.274,5.095,5.108,5.095c23.746,0,94.979,0,94.979,0
				c36.396,0,65.902-29.506,65.902-65.902C395.104,231.639,381.191,209.901,360.693,198.729z"/>
        </g>
    </symbol>
    <symbol id="user" viewBox="0 0 60 60">
        <g>
            <path d="M48.014,42.889l-9.553-4.776C37.56,37.662,37,36.756,37,35.748v-3.381c0.229-0.28,0.47-0.599,0.719-0.951
	c1.239-1.75,2.232-3.698,2.954-5.799C42.084,24.97,43,23.575,43,22v-4c0-0.963-0.36-1.896-1-2.625v-5.319
	c0.056-0.55,0.276-3.824-2.092-6.525C37.854,1.188,34.521,0,30,0s-7.854,1.188-9.908,3.53C17.724,6.231,17.944,9.506,18,10.056
	v5.319c-0.64,0.729-1,1.662-1,2.625v4c0,1.217,0.553,2.352,1.497,3.109c0.916,3.627,2.833,6.36,3.503,7.237v3.309
	c0,0.968-0.528,1.856-1.377,2.32l-8.921,4.866C8.801,44.424,7,47.458,7,50.762V54c0,4.746,15.045,6,23,6s23-1.254,23-6v-3.043
	C53,47.519,51.089,44.427,48.014,42.889z"/>
        </g>
    </symbol>
    <symbol id="visa" viewBox="0 -140 780 780">
        <g>
            <rect width="780" height="500" fill="#FFF" stroke-width="15px" stroke="#424141"/>
            <path d="m293.2 348.73l33.359-195.76h53.358l-33.384 195.76h-53.333zm246.11-191.54c-10.569-3.966-27.135-8.222-47.821-8.222-52.726 0-89.863 26.551-90.181 64.604-0.297 28.129 26.515 43.822 46.754 53.185 20.771 9.598 27.752 15.716 27.652 24.283-0.133 13.123-16.586 19.115-31.924 19.115-21.355 0-32.701-2.967-50.225-10.273l-6.878-3.111-7.487 43.822c12.463 5.467 35.508 10.199 59.438 10.445 56.09 0 92.502-26.248 92.916-66.885 0.199-22.27-14.016-39.215-44.801-53.188-18.65-9.056-30.072-15.099-29.951-24.269 0-8.137 9.668-16.838 30.56-16.838 17.446-0.271 30.088 3.534 39.936 7.5l4.781 2.259 7.231-42.427m137.31-4.223h-41.23c-12.772 0-22.332 3.486-27.94 16.234l-79.245 179.4h56.031s9.159-24.121 11.231-29.418c6.123 0 60.555 0.084 68.336 0.084 1.596 6.854 6.492 29.334 6.492 29.334h49.512l-43.187-195.64zm-65.417 126.41c4.414-11.279 21.26-54.724 21.26-54.724-0.314 0.521 4.381-11.334 7.074-18.684l3.606 16.878s10.217 46.729 12.353 56.527h-44.293v3e-3zm-363.3-126.41l-52.239 133.5-5.565-27.129c-9.726-31.274-40.025-65.157-73.898-82.12l47.767 171.2 56.455-0.063 84.004-195.39-56.524-1e-3"
                  fill="#0E4595"/>
            <path d="m146.92 152.96h-86.041l-0.682 4.073c66.939 16.204 111.23 55.363 129.62 102.42l-18.709-89.96c-3.229-12.396-12.597-16.096-24.186-16.528"
                  fill="#F2AE14"/>
        </g>
    </symbol>
    <symbol id="visa_num" viewBox="0 -6 36 36">
        <g>
            <path d="m33.6 24h-31.2c-1.325 0-2.4-1.075-2.4-2.4v-19.2c0-1.325 1.075-2.4 2.4-2.4h31.2c1.325 0 2.4 1.075 2.4 2.4v19.2c0 1.325-1.075 2.4-2.4 2.4zm-15.76-9.238-.359 2.25c.79.338 1.709.535 2.674.535.077 0 .153-.001.229-.004h-.011c.088.005.19.008.294.008 1.109 0 2.137-.348 2.981-.941l-.017.011c.766-.568 1.258-1.469 1.258-2.485 0-.005 0-.01 0-.015v.001c0-1.1-.736-2.014-2.187-2.72-.426-.208-.79-.426-1.132-.672l.023.016c-.198-.13-.33-.345-.343-.592v-.002c.016-.26.165-.482.379-.6l.004-.002c.282-.164.62-.261.982-.261.042 0 .084.001.126.004h-.006.08c.023 0 .05-.001.077-.001.644 0 1.255.139 1.806.388l-.028-.011.234.125.359-2.171c-.675-.267-1.458-.422-2.277-.422-.016 0-.033 0-.049 0h.003c-.064-.003-.139-.005-.214-.005-1.096 0-2.112.347-2.943.937l.016-.011c-.752.536-1.237 1.404-1.237 2.386v.005c-.01 1.058.752 1.972 2.266 2.72.4.175.745.389 1.054.646l-.007-.006c.175.148.288.365.297.608v.002.002c0 .319-.19.593-.464.716l-.005.002c-.3.158-.656.25-1.034.25-.015 0-.031 0-.046 0h.002c-.022 0-.049 0-.075 0-.857 0-1.669-.19-2.397-.53l.035.015-.343-.172zm10.125 1.141h3.315q.08.343.313 1.5h2.407l-2.094-10.031h-2c-.035-.003-.076-.005-.118-.005-.562 0-1.043.348-1.239.84l-.003.009-3.84 9.187h2.72l.546-1.499zm-13.074-8.531-1.626 10.031h2.594l1.625-10.031zm-9.969 2.047 2.11 7.968h2.734l4.075-10.015h-2.746l-2.534 6.844-.266-1.391-.904-4.609c-.091-.489-.514-.855-1.023-.855-.052 0-.104.004-.154.011l.006-.001h-4.187l-.031.203c3.224.819 5.342 2.586 6.296 5.25-.309-.792-.76-1.467-1.326-2.024l-.001-.001c-.567-.582-1.248-1.049-2.007-1.368l-.04-.015zm25.937 4.421h-2.16q.219-.578 1.032-2.8l.046-.141c.042-.104.094-.24.16-.406s.11-.302.14-.406l.188.859.593 2.89z"/>
        </g>
    </symbol>
</svg>


